<?xml version="1.0" standalone="no"?>
<!DOCTYPE svg PUBLIC "-//W3C//DTD SVG 20010904//EN"
 "http://www.w3.org/TR/2001/REC-SVG-20010904/DTD/svg10.dtd">
<svg version="1.0" xmlns="http://www.w3.org/2000/svg"
 viewBox="0 0 2600.000000 2600.000000"
 preserveAspectRatio="xMidYMid meet">
<metadata>
Created by potrace 1.13, written by Peter Selinger 2001-2015
</metadata>
<g transform="translate(0.000000,2600.000000) scale(0.100000,-0.100000)"
fill="#000000" stroke="none">
<path d="M10162 24401 c-29 -10 -85 -40 -123 -66 -113 -77 -188 -169 -441
-543 -251 -370 -352 -496 -552 -690 -242 -234 -508 -399 -841 -522 -268 -98
-426 -193 -576 -344 -231 -234 -371 -546 -435 -971 -9 -57 -18 -206 -21 -345
l-5 -245 78 -54 c145 -101 707 -503 890 -638 100 -73 183 -133 186 -133 2 0 0
37 -3 83 -47 534 -33 1108 36 1480 62 337 157 551 314 708 142 142 286 197
485 186 174 -10 313 -58 578 -202 307 -167 1258 -710 1449 -828 14 -8 47 13
170 108 460 355 828 665 1149 969 167 158 410 414 409 431 -1 26 -464 405
-760 622 -450 329 -1217 813 -1456 918 -208 91 -405 120 -531 76z"/>
<path d="M13016 22418 c-195 -211 -550 -541 -901 -834 -121 -101 -480 -389
-568 -454 -25 -19 -46 -37 -46 -40 0 -3 48 -34 107 -69 59 -36 275 -167 480
-293 205 -125 376 -228 381 -228 14 0 629 289 811 381 230 116 390 208 582
335 128 83 157 107 151 121 -15 45 -129 276 -170 348 -93 159 -221 341 -351
500 -84 102 -333 375 -341 375 -3 0 -64 -64 -135 -142z"/>
<path d="M9019 21976 c-212 -75 -340 -377 -390 -916 -16 -170 -16 -688 0 -925
13 -190 47 -554 53 -560 2 -2 82 -65 179 -142 565 -443 1060 -868 1479 -1268
155 -148 155 -148 162 -119 4 16 26 126 48 244 141 737 318 1137 639 1442 190
181 404 323 804 533 71 37 127 68 125 70 -10 8 -695 423 -978 592 -733 437
-1625 943 -1778 1007 -130 55 -262 71 -343 42z"/>
<path d="M15000 21830 c-133 -196 -396 -468 -619 -640 -404 -313 -702 -482
-1497 -854 -538 -251 -803 -381 -960 -471 -718 -413 -924 -771 -1115 -1937
l-32 -197 116 -124 c1008 -1075 1658 -2165 1942 -3262 106 -408 155 -729 175
-1150 6 -121 15 -247 21 -280 16 -92 22 -351 11 -440 -6 -44 -9 -81 -8 -82 5
-6 166 105 271 187 140 108 406 373 519 515 360 454 663 1058 881 1760 456
1465 613 3440 460 5765 -28 413 -106 1255 -119 1267 -2 3 -23 -23 -46 -57z"/>
<path d="M5900 21142 c0 -4 11 -57 25 -117 57 -250 111 -642 134 -975 35 -481
36 -899 10 -2380 -26 -1454 42 -2344 236 -3116 182 -724 452 -1278 870 -1784
162 -196 440 -458 655 -617 587 -434 1256 -729 2164 -953 l240 -60 225 10
c268 12 398 24 586 51 595 86 1009 259 1306 546 191 185 295 374 350 636 26
121 32 369 11 482 -7 39 -17 171 -22 295 -6 123 -17 285 -26 360 -145 1274
-745 2466 -1878 3730 -180 201 -722 740 -956 952 -743 670 -1597 1336 -2745
2139 -398 279 -1172 809 -1180 809 -3 0 -5 -3 -5 -8z"/>
<path d="M19374 18170 c-188 -26 -372 -139 -603 -370 -123 -123 -222 -246
-405 -503 -180 -254 -246 -337 -347 -438 -249 -249 -515 -363 -969 -414 -304
-34 -515 -97 -783 -232 -452 -229 -861 -624 -996 -964 -30 -78 -49 -164 -34
-158 5 2 87 45 183 95 273 142 373 174 491 155 92 -15 147 -47 240 -140 99
-99 148 -169 324 -451 157 -252 230 -357 333 -481 87 -103 232 -245 330 -321
67 -53 72 -51 72 31 0 73 28 284 56 421 203 987 879 1940 1778 2504 78 49 95
56 140 56 80 0 105 -22 213 -188 53 -81 97 -148 98 -150 2 -2 119 73 261 166
404 263 748 470 977 588 43 21 77 42 77 45 0 10 -292 256 -403 339 -218 164
-421 285 -584 346 -147 55 -326 81 -449 64z"/>
<path d="M22110 17530 c-444 -42 -1082 -319 -1862 -808 -189 -118 -588 -379
-588 -384 0 -4 171 -342 175 -346 2 -2 41 26 86 61 267 205 569 366 801 428
65 18 112 23 218 23 123 1 143 -2 225 -28 134 -44 241 -120 415 -295 263 -264
458 -553 686 -1016 126 -254 126 -253 58 -416 -306 -744 -650 -1332 -941
-1610 -164 -156 -271 -206 -477 -224 l-80 -6 -65 -62 c-102 -95 -262 -219
-419 -324 -117 -78 -141 -98 -130 -109 7 -6 129 -98 271 -203 l258 -191 152
69 c835 379 1572 808 2056 1195 145 116 343 310 417 410 146 196 233 403 285
680 27 143 37 488 20 673 -57 606 -302 1317 -659 1913 -99 166 -220 338 -278
396 -136 137 -359 199 -624 174z"/>
<path d="M19035 16513 c-261 -191 -569 -483 -751 -713 -394 -497 -645 -1051
-729 -1607 -22 -142 -39 -409 -31 -473 7 -54 8 -56 67 -94 271 -175 426 -304
744 -616 285 -280 431 -408 660 -578 161 -120 133 -115 335 -50 465 151 973
461 1320 808 195 194 309 368 333 505 19 109 4 127 -194 234 -132 72 -255 166
-379 291 -222 222 -377 493 -645 1125 -152 357 -275 621 -383 823 -95 177
-233 405 -247 408 -5 2 -50 -27 -100 -63z"/>
<path d="M20841 16179 c-144 -28 -336 -118 -538 -251 -97 -64 -265 -188 -331
-243 -7 -6 243 -576 312 -715 205 -410 398 -623 716 -790 212 -112 310 -252
310 -445 0 -64 -30 -197 -56 -247 -48 -93 74 60 189 237 103 158 211 352 332
595 100 200 241 508 259 566 4 15 -19 71 -82 195 -204 402 -406 695 -619 900
-197 189 -309 234 -492 198z"/>
<path d="M15518 14876 c-327 -167 -287 -123 -332 -366 -51 -276 -60 -392 -60
-720 0 -317 10 -446 55 -710 172 -997 720 -2026 1483 -2785 458 -455 926 -748
1313 -821 112 -21 334 -14 513 16 459 77 1045 286 1681 601 607 301 1210 678
1451 907 l72 69 -185 6 c-501 17 -976 142 -1549 407 -667 307 -1423 839 -1852
1303 -195 211 -363 349 -743 607 -312 212 -454 322 -612 474 -206 198 -313
336 -536 693 -165 266 -245 380 -299 429 -65 58 -78 54 -400 -110z"/>
<path d="M23875 13983 c-73 -214 -167 -381 -307 -548 -381 -454 -1206 -1003
-2273 -1512 -503 -240 -573 -265 -645 -228 -16 8 -196 139 -400 290 l-370 274
-93 -43 c-50 -24 -136 -60 -189 -80 -54 -21 -95 -42 -93 -47 11 -17 347 -201
526 -288 590 -285 1083 -411 1613 -411 180 0 272 -27 343 -102 91 -94 80 -226
-30 -380 -271 -378 -1232 -969 -2217 -1363 -107 -43 -198 -81 -202 -84 -21
-18 525 -147 797 -189 149 -22 202 -26 425 -26 228 0 266 2 357 22 626 137
1310 717 2204 1867 85 110 230 299 321 420 91 121 213 283 272 359 115 152
173 257 208 381 19 68 23 103 22 235 0 179 -9 231 -109 623 -35 139 -73 304
-85 367 -25 141 -43 370 -39 484 2 48 3 86 3 86 -1 0 -18 -48 -39 -107z"/>
<path d="M14394 12138 c239 -215 478 -415 723 -606 145 -112 406 -302 416
-302 3 0 -19 44 -50 98 -70 123 -196 376 -254 509 l-44 102 -104 41 c-220 87
-544 182 -701 205 l-45 7 59 -54z"/>
<path d="M7540 11841 c-223 -74 -373 -147 -535 -259 -269 -186 -441 -285 -602
-347 -40 -15 -70 -31 -68 -35 3 -4 19 -10 37 -13 18 -3 116 -21 218 -41 813
-154 1600 -195 2235 -115 154 20 353 54 362 63 2 2 -31 16 -74 31 -469 167
-993 431 -1341 675 -63 44 -115 80 -115 80 -1 0 -54 -18 -117 -39z"/>
<path d="M12755 11719 c-235 -336 -666 -601 -1205 -743 -337 -88 -670 -131
-1177 -151 l-161 -7 -206 48 -207 48 -100 -100 c-299 -295 -500 -614 -553
-876 -22 -107 -21 -247 3 -340 11 -41 49 -133 85 -204 103 -205 152 -345 195
-559 33 -164 45 -299 45 -507 1 -145 4 -194 12 -185 6 7 359 586 784 1287 425
701 782 1286 794 1298 60 67 134 68 241 2 370 -229 944 -365 1460 -347 184 7
293 20 570 66 566 95 1242 161 1946 191 145 7 293 15 329 19 l65 6 -160 91
c-634 362 -1319 647 -2100 878 -105 31 -591 156 -605 156 -3 0 -27 -32 -55
-71z"/>
<path d="M16055 10339 c-87 -45 -139 -83 -223 -163 -140 -133 -248 -288 -457
-661 -273 -485 -413 -687 -769 -1103 -72 -85 -147 -172 -166 -195 -26 -31 -30
-39 -15 -34 69 26 1175 615 1605 855 409 228 833 481 916 547 l26 20 -84 65
c-211 164 -470 405 -640 596 -61 70 -98 104 -112 104 -12 0 -48 -14 -81 -31z"/>
<path d="M10653 9482 l-362 -597 6 -575 c17 -1753 -147 -3628 -508 -5795 -80
-478 -83 -535 -37 -637 48 -103 148 -192 256 -225 65 -20 180 -19 244 2 117
39 226 144 262 253 22 66 141 782 225 1357 206 1399 329 2718 372 3983 13 395
7 1572 -10 1867 -25 428 -70 965 -80 965 -3 0 -169 -269 -368 -598z"/>
<path d="M17330 9363 c0 -5 -5 -62 -10 -128 -29 -339 75 -993 266 -1675 53
-191 117 -390 124 -390 9 0 127 162 225 310 136 204 240 383 340 585 187 380
267 679 249 941 -5 82 -4 106 10 132 9 17 16 33 16 34 0 2 -55 -5 -122 -15
-96 -14 -163 -17 -303 -14 -160 4 -193 8 -297 35 -122 32 -306 101 -420 158
-72 36 -78 38 -78 27z"/>
<path d="M18878 9252 l-126 -35 60 -56 c182 -168 319 -243 593 -322 198 -57
285 -89 405 -149 151 -76 186 -101 660 -473 168 -132 311 -245 319 -251 12 -9
13 -8 6 4 -45 75 -523 706 -698 921 l-95 116 -64 12 c-169 33 -485 120 -748
207 -91 31 -169 57 -175 58 -5 2 -67 -12 -137 -32z"/>
<path d="M16893 9170 l-93 -59 -98 -203 c-124 -256 -502 -994 -725 -1413 -836
-1577 -1649 -2911 -2355 -3865 -317 -428 -584 -747 -909 -1088 -185 -194 -212
-233 -234 -346 -23 -112 18 -250 102 -341 89 -97 201 -141 331 -132 155 10
235 70 552 417 1025 1117 2213 2972 3516 5488 l172 333 -36 172 c-78 372 -105
584 -113 870 -3 125 -9 227 -12 227 -3 0 -48 -27 -98 -60z"/>
</g>
</svg>
